<svg width="21" height="21" viewBox="0 0 21 21" fill="none" xmlns="http://www.w3.org/2000/svg">
<path fill-rule="evenodd" clip-rule="evenodd" d="M15.643 14.1474L19.8644 18.3747C20.0529 18.5844 20.0436 18.9055 19.8433 19.1039L19.1045 19.8437C19.0054 19.9437 18.8706 20 18.7299 20C18.5892 20 18.4543 19.9437 18.3552 19.8437L14.1338 15.6164C14.017 15.4994 13.9111 15.372 13.8172 15.2359L13.0257 14.1791C11.716 15.2263 10.0897 15.7965 8.41376 15.796C4.96022 15.808 1.95922 13.4224 1.18744 10.0515C0.415669 6.68058 2.07909 3.22404 5.19291 1.72824C8.30674 0.232444 12.0399 1.0966 14.1823 3.8091C16.3247 6.5216 16.3046 10.3585 14.1338 13.0483L15.1892 13.7775C15.354 13.8831 15.5062 14.0072 15.643 14.1474ZM3.13715 8.39798C3.13715 11.3163 5.49964 13.6821 8.41393 13.6821C9.81342 13.6821 11.1556 13.1254 12.1452 12.1344C13.1348 11.1435 13.6907 9.79943 13.6907 8.39798C13.6907 5.47963 11.3282 3.11384 8.41393 3.11384C5.49964 3.11384 3.13715 5.47963 3.13715 8.39798Z" fill="black"/>
<path d="M19.8644 18.3747L20.1433 18.124L20.1367 18.1167L20.1297 18.1097L19.8644 18.3747ZM15.643 14.1474L15.3745 14.4093L15.3776 14.4124L15.643 14.1474ZM19.8433 19.1039L19.5794 18.8375L19.5779 18.8389L19.8433 19.1039ZM19.1045 19.8437L18.8392 19.5787L18.8381 19.5798L19.1045 19.8437ZM18.3552 19.8437L18.6217 19.5798L18.6206 19.5787L18.3552 19.8437ZM14.1338 15.6164L13.8683 15.8813L13.8684 15.8814L14.1338 15.6164ZM13.8172 15.2359L14.1259 15.023L14.1217 15.017L14.1173 15.0111L13.8172 15.2359ZM13.0257 14.1791L13.3258 13.9543L13.0938 13.6445L12.7915 13.8862L13.0257 14.1791ZM8.41376 15.796L8.41387 15.421L8.41246 15.421L8.41376 15.796ZM1.18744 10.0515L1.55299 9.96781L1.55299 9.96781L1.18744 10.0515ZM5.19291 1.72824L5.03054 1.39022L5.03054 1.39022L5.19291 1.72824ZM14.1823 3.8091L13.8881 4.04153L13.8881 4.04153L14.1823 3.8091ZM14.1338 13.0483L13.842 12.8128L13.5883 13.1272L13.9206 13.3568L14.1338 13.0483ZM15.1892 13.7775L14.9759 14.0862L14.9868 14.0932L15.1892 13.7775ZM12.1452 12.1344L12.4105 12.3994L12.4105 12.3994L12.1452 12.1344ZM20.1297 18.1097L15.9083 13.8824L15.3776 14.4124L19.599 18.6397L20.1297 18.1097ZM20.1072 19.3703C20.4497 19.0311 20.4655 18.4825 20.1433 18.124L19.5855 18.6254C19.6403 18.6864 19.6376 18.7799 19.5794 18.8375L20.1072 19.3703ZM19.3699 20.1087L20.1086 19.3689L19.5779 18.8389L18.8392 19.5787L19.3699 20.1087ZM18.7299 20.375C18.9707 20.375 19.2015 20.2787 19.371 20.1076L18.8381 19.5798C18.8094 19.6088 18.7704 19.625 18.7299 19.625V20.375ZM18.0888 20.1076C18.2582 20.2787 18.489 20.375 18.7299 20.375V19.625C18.6893 19.625 18.6504 19.6088 18.6217 19.5798L18.0888 20.1076ZM13.8684 15.8814L18.0899 20.1087L18.6206 19.5787L14.3991 15.3514L13.8684 15.8814ZM13.5085 15.4489C13.6152 15.6035 13.7356 15.7483 13.8683 15.8813L14.3993 15.3515C14.2984 15.2505 14.2069 15.1405 14.1259 15.023L13.5085 15.4489ZM12.7255 14.4039L13.517 15.4607L14.1173 15.0111L13.3258 13.9543L12.7255 14.4039ZM8.41365 16.171C10.1748 16.1716 11.8838 15.5724 13.2599 14.472L12.7915 13.8862C11.5483 14.8803 10.0046 15.4215 8.41387 15.421L8.41365 16.171ZM0.821903 10.1352C1.63274 13.6767 4.78583 16.1837 8.41506 16.171L8.41246 15.421C5.1346 15.4324 2.2857 13.1681 1.55299 9.96781L0.821903 10.1352ZM5.03054 1.39022C1.75855 2.96199 0.0110893 6.59377 0.821903 10.1352L1.55299 9.96781C0.820248 6.7674 2.39963 3.48609 5.35529 2.06626L5.03054 1.39022ZM14.4766 3.57667C12.2255 0.726579 8.30267 -0.181627 5.03054 1.39022L5.35529 2.06626C8.3108 0.646516 11.8543 1.46661 13.8881 4.04153L14.4766 3.57667ZM14.4256 13.2838C16.7064 10.4578 16.7276 6.42659 14.4766 3.57667L13.8881 4.04153C15.9219 6.61661 15.9028 10.2593 13.842 12.8128L14.4256 13.2838ZM15.4023 13.469L14.347 12.7398L13.9206 13.3568L14.976 14.086L15.4023 13.469ZM15.9114 13.8855C15.7547 13.725 15.5803 13.5828 15.3915 13.4618L14.9868 14.0932C15.1276 14.1835 15.2577 14.2895 15.3745 14.4093L15.9114 13.8855ZM8.41393 13.3071C5.70724 13.3071 3.51215 11.1097 3.51215 8.39798H2.76215C2.76215 11.5229 5.29204 14.0571 8.41393 14.0571V13.3071ZM11.8798 11.8695C10.9605 12.79 9.7138 13.3071 8.41393 13.3071V14.0571C9.91305 14.0571 11.3507 13.4608 12.4105 12.3994L11.8798 11.8695ZM13.3157 8.39798C13.3157 9.70014 12.7992 10.9489 11.8798 11.8695L12.4105 12.3994C13.4704 11.3381 14.0657 9.89871 14.0657 8.39798H13.3157ZM8.41393 3.48884C11.1206 3.48884 13.3157 5.68625 13.3157 8.39798H14.0657C14.0657 5.27302 11.5358 2.73884 8.41393 2.73884V3.48884ZM3.51215 8.39798C3.51215 5.68625 5.70724 3.48884 8.41393 3.48884V2.73884C5.29204 2.73884 2.76215 5.27302 2.76215 8.39798H3.51215Z" fill="white"/>
</svg>
